<?xml version="1.0" standalone="no"?>
<!DOCTYPE svg PUBLIC "-//W3C//DTD SVG 20010904//EN"
 "http://www.w3.org/TR/2001/REC-SVG-20010904/DTD/svg10.dtd">
<svg version="1.0" xmlns="http://www.w3.org/2000/svg"
 width="266.000000pt" height="266.000000pt" viewBox="0 0 266.000000 266.000000"
 preserveAspectRatio="xMidYMid meet">
<metadata>
Created by potrace 1.11, written by Peter Selinger 2001-2013
</metadata>
<g transform="translate(0.000000,266.000000) scale(0.100000,-0.100000)"
fill="#000000" stroke="none">
<path d="M2249 2605 c-3 -2 -422 -5 -931 -5 -1012 -1 -957 2 -943 -59 l6 -29
-66 -7 c-36 -4 -81 -5 -99 -2 -40 6 -79 -16 -108 -64 -18 -28 -21 -48 -19
-119 1 -47 6 -101 11 -120 47 -182 85 -316 90 -320 4 -3 10 -18 14 -35 4 -16
21 -57 38 -90 17 -33 38 -72 45 -87 8 -16 18 -28 23 -28 4 0 10 -10 14 -22 8
-32 110 -148 130 -148 7 0 23 -11 36 -24 12 -14 35 -28 51 -31 15 -4 46 -15
68 -26 22 -10 48 -19 59 -19 10 0 26 -6 35 -13 16 -11 16 -15 2 -59 -15 -42
-15 -49 -1 -76 30 -59 108 -55 149 6 14 20 28 47 32 60 6 21 9 22 23 9 84 -73
233 -147 297 -147 l34 0 -5 -97 c-5 -94 -43 -261 -66 -290 -7 -9 -6 -18 2 -28
11 -13 1 -15 -76 -15 -49 0 -106 -3 -126 -6 -46 -8 -122 -73 -112 -98 5 -14
52 -16 468 -19 l461 -2 -506 -3 c-412 -2 -509 -5 -524 -16 -18 -13 -19 -30
-19 -251 0 -222 1 -238 19 -251 28 -21 1182 -21 1210 0 18 13 19 28 18 252 -1
274 3 263 -97 265 -42 1 -53 3 -36 8 33 9 36 39 6 74 -29 36 -76 47 -186 46
-119 -1 -114 -1 -101 15 9 10 6 25 -12 62 -38 78 -48 113 -63 209 -7 50 -16
102 -19 118 -4 23 -1 27 20 27 54 0 190 68 257 128 29 27 58 24 58 -5 1 -21
38 -66 68 -82 37 -20 79 -13 101 15 25 32 26 55 6 94 -18 36 -11 56 23 65 14
3 44 15 66 26 22 10 46 19 54 19 18 0 152 80 152 91 0 5 19 28 41 51 23 24 45
52 51 63 5 11 14 29 21 40 49 82 66 116 82 160 9 28 24 66 33 85 8 19 19 48
23 65 4 16 22 82 39 145 38 140 46 275 18 326 -30 55 -59 66 -174 67 l-104 1
0 43 c0 37 -4 45 -26 53 -29 12 -29 12 -35 5z m240 -241 c11 -3 12 -19 7 -73
-6 -67 -15 -107 -57 -241 -54 -174 -165 -389 -229 -443 -56 -47 -120 -85 -162
-95 -51 -13 -98 -16 -98 -6 0 4 14 29 30 56 17 26 30 55 30 63 0 8 4 15 8 15
9 0 112 211 112 228 0 6 4 12 10 14 16 5 97 237 107 308 3 19 9 40 15 46 5 7
11 36 14 65 3 30 7 59 9 64 2 10 175 9 204 -1z m-2077 -39 c-3 -27 2 -56 12
-76 9 -18 16 -42 16 -55 0 -13 4 -33 9 -46 5 -13 17 -48 26 -78 8 -30 20 -64
24 -75 5 -11 17 -41 28 -67 10 -27 21 -48 26 -48 4 0 7 -7 7 -15 0 -19 93
-212 141 -291 22 -35 39 -66 39 -69 0 -16 -136 7 -150 26 -3 3 -20 14 -37 23
-18 9 -50 33 -70 54 -45 44 -113 141 -113 160 0 8 -8 26 -18 40 -41 59 -107
250 -151 435 -12 53 -14 110 -4 120 3 4 54 7 112 7 l106 0 -3 -45z"/>
</g>
</svg>
